<?xml version="1.0" encoding="utf-8"?>
<!-- Generator: Adobe Illustrator 27.7.0, SVG Export Plug-In . SVG Version: 6.00 Build 0)  -->
<svg version="1.1" id="Layer_1" xmlns="http://www.w3.org/2000/svg" xmlns:xlink="http://www.w3.org/1999/xlink" x="0px" y="0px"
	 viewBox="0 0 418.5 222.9" style="enable-background:new 0 0 418.5 222.9;" xml:space="preserve">
<style type="text/css">
	.st0{fill:#1A1A1A;}
	.st1{fill:#D20E0E;}
	.st2{fill:#FFFFFF;}
	.st3{font-family:'Montserrat-SemiBold';}
	.st4{font-size:37.3615px;}
</style>
<g>
	<g>
		<g>
			<rect x="7.9" y="6" class="st0" width="255" height="74.4"/>
		</g>
		<g>
			<rect x="7.9" y="91.7" class="st1" width="406.3" height="79.5"/>
		</g>
		<g>
			<path class="st2" d="M27.1,20.5h21.8c5,0,9.5,0.9,13.4,2.8c3.9,1.9,6.9,4.6,9.1,8c2.2,3.5,3.2,7.5,3.2,12.2
				c0,4.7-1.1,8.7-3.2,12.2c-2.2,3.5-5.2,6.1-9.1,8c-3.9,1.9-8.4,2.8-13.4,2.8H27.1V20.5z M48.3,56.2c4,0,7.1-1.1,9.5-3.4
				c2.4-2.2,3.6-5.3,3.6-9.3c0-4-1.2-7-3.6-9.3c-2.4-2.2-5.6-3.4-9.5-3.4h-8.2v25.3H48.3z"/>
			<path class="st2" d="M81.5,20.5h13v46.1h-13V20.5z"/>
			<path class="st2" d="M134.7,57.6h-19.5l-3.6,9H98.3l20.4-46.1h12.8l20.4,46.1h-13.6L134.7,57.6z M130.9,48l-5.9-14.8L119,48
				H130.9z"/>
			<path class="st2" d="M175.7,54.3h-7.1v12.3h-13V20.5h21.1c4.2,0,7.8,0.7,10.9,2.1c3.1,1.4,5.4,3.4,7.1,5.9
				c1.7,2.6,2.5,5.6,2.5,9.1c0,3.3-0.8,6.2-2.3,8.7c-1.6,2.5-3.8,4.4-6.7,5.8l9.9,14.5h-14L175.7,54.3z M181.9,32.5
				c-1.4-1.2-3.4-1.8-6.1-1.8h-7.2v13.5h7.2c2.7,0,4.7-0.6,6.1-1.7c1.4-1.2,2-2.8,2-5C184,35.4,183.3,33.7,181.9,32.5z"/>
			<path class="st2" d="M228.3,50v16.5h-13V49.8l-17.6-29.4h13.8l10.9,18.3l10.9-18.3H246L228.3,50z"/>
			<path class="st0" d="M299,50.1c-0.2,1.7-0.8,3.8-1.7,6.3c-0.9,2.5-2.2,4.9-3.7,7.2c-1.6,2.3-3.4,4.2-5.6,5.8
				c-2.2,1.5-4.7,2.2-7.5,1.9c-1.2-0.1-2.4-0.5-3.6-1.3c-1.2-0.8-2.3-1.8-3.1-3.1c-0.9-1.3-1.6-2.8-2-4.6c-0.5-1.7-0.6-3.7-0.3-5.9
				c0.5-3.9,1.4-7.2,2.8-9.9c1.4-2.7,2.9-5.1,4.5-6.9c0.8-0.9,1.8-1.2,3-0.8c1.2,0.4,2.3,1.2,3.2,2.5c-1.8-2.8-2.6-5.5-2.5-7.9
				s0.7-4.4,1.9-5.9c1.1-1.5,2.6-2.5,4.4-3c1.8-0.4,3.5-0.1,5.3,1c1.7,1.1,3.2,3.1,4.4,5.9c1.2,2.9,1.8,6.8,1.7,11.8
				c1,0.4,2.1,0.6,3.2,0.7c1.1,0.1,2.2,0,3.3-0.1c1.1-0.2,2.2-0.4,3.2-0.7c1-0.3,1.9-0.5,2.6-0.8c0.6-0.2,1.1-0.1,1.5,0.4
				c0.4,0.5,0.6,1.1,0.7,1.8c0.1,0.7,0.1,1.5-0.1,2.2c-0.2,0.7-0.5,1.2-0.9,1.5c-2.9,1.5-5.6,2.3-8.2,2.4
				C302.7,50.8,300.6,50.6,299,50.1z M286,43.6c0.2,0.5,0.3,1,0.2,1.5c-0.1,0.5-0.4,1.1-1,1.7c-1.2,1.3-2.3,2.9-3.2,4.8
				c-0.9,1.9-1.6,3.7-2.1,5.4c-0.4,1.7-0.6,3.1-0.4,4.3c0.2,1.2,0.9,1.7,2,1.6c1-0.1,2.1-0.7,3.2-1.8c1.1-1.1,2.1-2.4,3.1-3.9
				c0.9-1.5,1.8-3.1,2.5-4.8c0.7-1.7,1.2-3.2,1.4-4.5c-0.9-0.3-1.9-0.9-3-1.7C287.5,45.3,286.6,44.5,286,43.6z M289.5,32.2
				c-0.3,0.2-0.5,0.7-0.6,1.4c0,0.7,0.1,1.5,0.4,2.3c0.3,0.8,0.7,1.7,1.2,2.5c0.5,0.8,1.2,1.5,2,1.9c0.1-1,0.1-2-0.1-3.1
				s-0.3-2.1-0.6-2.9c-0.3-0.8-0.6-1.5-1.1-1.9C290.5,31.9,290,31.9,289.5,32.2z"/>
			<path class="st0" d="M318,59.2c0.3,2.5,0.2,5.4-0.2,8.7c-0.4,3.3-1.1,6.7-2,10.1c-0.9,3.4-2,6.8-3.4,10c-1.3,3.2-2.8,6-4.5,8.4
				c-1.6,2.4-3.3,4.2-5.2,5.3c-1.8,1.2-3.6,1.4-5.5,0.8c-2.1-0.7-3.4-2.5-3.8-5.3c-0.4-2.8-0.3-6.2,0.4-10.3
				c0.7-4.1,1.9-8.6,3.7-13.7c1.8-5,3.8-10.2,6.1-15.5c2.3-5.3,4.8-10.5,7.4-15.7c2.7-5.1,5.3-9.9,7.9-14.3s5.1-8.1,7.4-11.2
				c2.4-3.1,4.4-5.3,6.1-6.6c0.9-0.7,1.9-0.7,2.8,0c0.9,0.7,1.7,1.7,2.3,3c0.6,1.3,0.9,2.6,0.9,4.1c0,1.5-0.4,2.6-1.4,3.4
				c-2.4,2.1-4.6,4.3-6.6,6.7c-2,2.4-3.9,4.9-5.6,7.4c-1.7,2.5-3.2,5.1-4.6,7.6c-1.4,2.5-2.6,5-3.7,7.3c2.1,0.5,4.3,0.6,6.5,0.4
				c2.3-0.2,4.4-0.7,6.5-1.5c2.1-0.7,4-1.7,5.7-2.9c1.8-1.2,3.2-2.5,4.3-4.1c0.5-0.6,1-0.8,1.6-0.6c0.6,0.2,1,0.5,1.4,1.2
				c0.4,0.6,0.6,1.4,0.6,2.3c0,0.9-0.3,1.8-1,2.7c-1.4,1.9-3.1,3.5-5,5c-1.9,1.5-4,2.7-6.1,3.8c-2.2,1.1-4.4,1.9-6.7,2.4
				C322.2,59.1,320.1,59.3,318,59.2z M311.7,59.9c-2,4.5-3.8,8.8-5.2,12.7c-1.4,4-2.6,7.4-3.4,10.4c-0.8,3-1.3,5.2-1.5,6.9
				c-0.2,1.6-0.1,2.3,0.4,2.1c0.6-0.2,1.5-1.4,2.7-3.3c1.2-2,2.4-4.5,3.5-7.5c1.1-3,2-6.3,2.8-10.1C311.7,67.3,312,63.6,311.7,59.9z
				"/>
			<path class="st0" d="M383.7,47.6c-1.9,2.2-4,4.9-6.5,8.1c-2.4,3.2-4.9,6.2-7.5,9.1c-2.6,2.9-5.2,5.2-7.9,6.9
				c-2.7,1.7-5.2,2.1-7.6,1.2c-1.6-0.6-2.7-1.7-3.2-3.4c-0.5-1.7-0.6-3.7-0.2-6c0.4-2.3,1.1-4.8,2.3-7.5c1.2-2.7,2.6-5.3,4.3-7.9
				c1.7-2.6,3.6-5.1,5.7-7.3c2.1-2.3,4.3-4.2,6.6-5.7c2.7-1.9,5.2-2.4,7.5-1.7c2.3,0.7,4.3,2.5,5.9,5.3c0.5-0.6,1-1.3,1.7-2.2
				c0.7-0.9,1.4-1.8,2.1-2.8c0.7-1,1.4-1.9,2.1-2.8c0.7-0.9,1.3-1.6,1.9-2.1c0.9-0.9,1.8-1.3,2.8-1.3c1,0,1.9,0.4,2.6,1
				c0.7,0.6,1.2,1.5,1.4,2.6c0.2,1.1,0.1,2.3-0.6,3.6c-3.7,8.2-6.2,14.4-7.3,18.6c-1.2,4.2-1.3,6.6-0.3,7.3c1,0.6,3.1-0.4,6.3-3.2
				c3.2-2.7,7.2-7,12.2-12.6c0.6-0.6,1.2-0.9,1.7-0.9c0.5,0,1,0.3,1.3,0.8c0.3,0.5,0.4,1.1,0.4,1.9c-0.1,0.8-0.4,1.7-1.1,2.7
				c-6.3,8.9-11.6,14.8-15.8,17.8c-4.2,3-7.7,3.5-10.6,1.8c-1.8-1.1-2.9-3.3-3.1-6.6C380.6,59,381.5,54.2,383.7,47.6z M364.8,59.4
				c1.1-1,2.4-2.2,3.9-3.8c1.4-1.5,2.9-3.1,4.2-4.7c1.4-1.6,2.6-3.2,3.7-4.6c1.1-1.5,1.8-2.5,2.1-3.3c0.3-0.6,0.1-1.1-0.4-1.5
				c-0.5-0.4-1.4-0.4-2.6-0.1c-1.2,0.3-2.7,1.2-4.4,2.5c-1.8,1.4-3.8,3.6-6,6.6c-0.5,0.6-1.1,1.5-1.8,2.6c-0.7,1.1-1.3,2.2-1.9,3.3
				c-0.6,1.1-1,2.1-1.4,3.1c-0.4,1-0.5,1.7-0.4,2.1c0.1,0.4,0.5,0.5,1.3,0.2C361.9,61.6,363.1,60.7,364.8,59.4z"/>
			<path class="st2" d="M41.5,117.7v10.9h21.9v10.9H41.5v17H27.5v-49.7h39v10.9H41.5z"/>
			<path class="st2" d="M83.5,154.1c-4.2-2.2-7.5-5.3-9.9-9.2c-2.4-3.9-3.6-8.3-3.6-13.3c0-4.9,1.2-9.3,3.6-13.3
				c2.4-3.9,5.7-7,9.9-9.2c4.2-2.2,8.9-3.3,14.2-3.3c5.3,0,10,1.1,14.2,3.3c4.2,2.2,7.5,5.3,9.9,9.2c2.4,3.9,3.6,8.4,3.6,13.3
				c0,4.9-1.2,9.3-3.6,13.3c-2.4,3.9-5.7,7-9.9,9.2c-4.2,2.2-8.9,3.3-14.2,3.3C92.4,157.5,87.7,156.4,83.5,154.1z M104.5,144.1
				c2-1.2,3.6-2.8,4.8-5c1.2-2.2,1.8-4.6,1.8-7.4c0-2.8-0.6-5.3-1.8-7.4c-1.2-2.2-2.8-3.8-4.8-5c-2-1.2-4.3-1.8-6.8-1.8
				c-2.5,0-4.8,0.6-6.8,1.8c-2,1.2-3.6,2.9-4.8,5c-1.2,2.2-1.8,4.6-1.8,7.4c0,2.8,0.6,5.3,1.8,7.4c1.2,2.2,2.8,3.8,4.8,5
				c2,1.2,4.3,1.8,6.8,1.8C100.2,145.8,102.5,145.3,104.5,144.1z"/>
			<path class="st2" d="M138.4,151.4c-4.1-4-6.1-9.7-6.1-17.1v-27.5h14.1v27.1c0,7.9,3.1,11.9,9.4,11.9c6.2,0,9.4-4,9.4-11.9v-27.1
				h13.8v27.5c0,7.4-2,13.1-6.1,17.1c-4.1,4-9.8,6-17.2,6C148.2,157.5,142.5,155.5,138.4,151.4z"/>
			<path class="st2" d="M235.7,106.8v49.7h-11.6L202.2,130v26.5h-13.8v-49.7H200l21.9,26.5v-26.5H235.7z"/>
			<path class="st2" d="M245.6,106.8h23.5c5.4,0,10.3,1,14.5,3.1c4.2,2,7.5,4.9,9.8,8.7c2.3,3.7,3.5,8.1,3.5,13.1
				c0,5-1.2,9.4-3.5,13.1c-2.3,3.7-5.6,6.6-9.8,8.7c-4.2,2-9,3.1-14.5,3.1h-23.5V106.8z M268.6,145.3c4.3,0,7.7-1.2,10.3-3.6
				c2.6-2.4,3.9-5.7,3.9-10s-1.3-7.6-3.9-10c-2.6-2.4-6-3.6-10.3-3.6h-8.9v27.3H268.6z"/>
			<path class="st2" d="M344.1,145.6v10.9h-39.9v-49.7h39v10.9h-25.1v8.4h22.1v10.5h-22.1v9.1H344.1z"/>
			<path class="st2" d="M373.7,143.3H366v13.2h-14.1v-49.7h22.7c4.5,0,8.4,0.7,11.7,2.2s5.9,3.6,7.7,6.4c1.8,2.8,2.7,6,2.7,9.8
				c0,3.6-0.8,6.7-2.5,9.4c-1.7,2.7-4.1,4.8-7.2,6.3l10.7,15.6h-15L373.7,143.3z M380.3,119.8c-1.5-1.3-3.6-1.9-6.5-1.9H366v14.5
				h7.8c2.9,0,5.1-0.6,6.5-1.9c1.5-1.3,2.2-3,2.2-5.4C382.5,122.9,381.8,121.1,380.3,119.8z"/>
		</g>
	</g>
	<text transform="matrix(1 0 0 1 5.3374 215.7432)" class="st3 st4">Foundation</text>
</g>
</svg>
