<?xml version="1.0" encoding="utf-8"?>
<!-- Generator: Adobe Illustrator 27.7.0, SVG Export Plug-In . SVG Version: 6.00 Build 0)  -->
<svg version="1.1" id="Layer_1" xmlns="http://www.w3.org/2000/svg" xmlns:xlink="http://www.w3.org/1999/xlink" x="0px" y="0px"
	 viewBox="0 0 418.5 142.8" style="enable-background:new 0 0 418.5 142.8;" xml:space="preserve">
<style type="text/css">
	.st0{fill:#1A1A1A;}
	.st1{fill:#D30E0E;}
	.st2{fill:#FFFFFF;}
</style>
<g>
	<g>
		<g>
			<g>
				<rect x="3.7" y="5.6" class="st0" width="203.5" height="59.4"/>
			</g>
		</g>
		<g>
			<g>
				<rect x="3.7" y="74" class="st1" width="324.2" height="63.5"/>
			</g>
		</g>
		<g>
			<g>
				<path class="st2" d="M19,17.2h17.4c4,0,7.6,0.8,10.7,2.3c3.1,1.5,5.5,3.6,7.3,6.4c1.7,2.8,2.6,6,2.6,9.7c0,3.7-0.9,7-2.6,9.7
					c-1.7,2.8-4.1,4.9-7.3,6.4C44,53.2,40.5,54,36.4,54H19V17.2z M36,45.7c3.2,0,5.7-0.9,7.6-2.7c1.9-1.8,2.9-4.3,2.9-7.4
					c0-3.2-1-5.6-2.9-7.4c-1.9-1.8-4.4-2.7-7.6-2.7h-6.6v20.2H36z"/>
			</g>
			<g>
				<path class="st2" d="M62.5,17.2h10.4V54H62.5V17.2z"/>
			</g>
			<g>
				<path class="st2" d="M104.9,46.8H89.4L86.5,54H75.9l16.2-36.8h10.2L118.6,54h-10.8L104.9,46.8z M101.9,39.2l-4.7-11.8l-4.7,11.8
					H101.9z"/>
			</g>
			<g>
				<path class="st2" d="M137.7,44.2H132V54h-10.4V17.2h16.8c3.3,0,6.2,0.6,8.7,1.7c2.5,1.1,4.3,2.7,5.7,4.7c1.3,2,2,4.5,2,7.2
					c0,2.7-0.6,5-1.9,7c-1.2,2-3,3.5-5.3,4.7l7.9,11.6h-11.1L137.7,44.2z M142.6,26.8c-1.1-0.9-2.7-1.4-4.8-1.4H132v10.8h5.8
					c2.1,0,3.7-0.5,4.8-1.4c1.1-0.9,1.6-2.3,1.6-4C144.2,29.1,143.7,27.8,142.6,26.8z"/>
			</g>
			<g>
				<path class="st2" d="M179.7,40.8V54h-10.4V40.6l-14-23.4h11l8.7,14.6l8.7-14.6h10.1L179.7,40.8z"/>
			</g>
			<g>
				<path class="st0" d="M236,40.9c-0.2,1.4-0.6,3-1.4,5c-0.8,2-1.7,3.9-3,5.8c-1.2,1.8-2.7,3.4-4.5,4.6c-1.7,1.2-3.8,1.7-6,1.5
					c-1-0.1-1.9-0.4-2.9-1c-1-0.6-1.8-1.4-2.5-2.5c-0.7-1-1.2-2.2-1.6-3.6c-0.4-1.4-0.5-3-0.2-4.7c0.4-3.1,1.1-5.7,2.2-7.9
					c1.1-2.2,2.3-4,3.6-5.5c0.6-0.7,1.5-0.9,2.4-0.6c1,0.3,1.8,1,2.6,2c-1.4-2.3-2.1-4.4-2-6.3s0.6-3.5,1.5-4.7
					c0.9-1.2,2.1-2,3.5-2.4c1.4-0.4,2.8-0.1,4.2,0.8c1.4,0.9,2.5,2.5,3.5,4.7c1,2.3,1.4,5.4,1.4,9.4c0.8,0.3,1.7,0.5,2.5,0.6
					c0.9,0.1,1.8,0,2.7-0.1c0.9-0.1,1.7-0.3,2.5-0.5c0.8-0.2,1.5-0.4,2.1-0.6c0.5-0.2,0.9-0.1,1.2,0.3c0.3,0.4,0.5,0.9,0.6,1.5
					c0.1,0.6,0.1,1.2-0.1,1.7c-0.1,0.6-0.4,1-0.7,1.2c-2.3,1.2-4.5,1.9-6.6,1.9C239,41.4,237.3,41.3,236,40.9z M225.7,35.7
					c0.2,0.4,0.2,0.8,0.2,1.2c-0.1,0.4-0.3,0.8-0.8,1.4c-1,1-1.8,2.3-2.6,3.8c-0.8,1.5-1.3,3-1.7,4.3c-0.4,1.4-0.4,2.5-0.3,3.4
					c0.2,0.9,0.7,1.4,1.6,1.3c0.8-0.1,1.7-0.5,2.5-1.5c0.9-0.9,1.7-2,2.5-3.1c0.8-1.2,1.4-2.5,2-3.8c0.6-1.4,0.9-2.5,1.1-3.6
					c-0.7-0.3-1.5-0.7-2.4-1.4C226.9,37,226.2,36.4,225.7,35.7z M228.5,26.6c-0.3,0.2-0.4,0.6-0.4,1.1c0,0.5,0.1,1.2,0.3,1.8
					c0.2,0.7,0.5,1.3,1,2c0.4,0.6,1,1.2,1.6,1.5c0.1-0.8,0-1.6,0-2.5c-0.1-0.9-0.2-1.6-0.4-2.3c-0.2-0.7-0.5-1.2-0.8-1.5
					C229.2,26.3,228.9,26.3,228.5,26.6z"/>
			</g>
			<g>
				<path class="st0" d="M251.2,48.1c0.2,2,0.2,4.3-0.2,7c-0.3,2.6-0.8,5.3-1.6,8.1c-0.7,2.7-1.6,5.4-2.7,8
					c-1.1,2.6-2.3,4.8-3.6,6.7c-1.3,1.9-2.7,3.3-4.1,4.3c-1.5,0.9-2.9,1.1-4.4,0.6c-1.7-0.6-2.7-2-3-4.2c-0.3-2.2-0.2-5,0.3-8.2
					c0.6-3.3,1.5-6.9,2.9-10.9c1.4-4,3-8.1,4.8-12.3c1.8-4.2,3.8-8.4,5.9-12.5c2.1-4.1,4.2-7.9,6.3-11.4c2.1-3.5,4-6.5,5.9-9
					c1.9-2.5,3.5-4.2,4.8-5.3c0.8-0.6,1.5-0.6,2.3,0c0.8,0.6,1.4,1.4,1.8,2.4c0.5,1,0.7,2.1,0.7,3.2c0,1.2-0.3,2.1-1.1,2.7
					c-1.9,1.7-3.6,3.5-5.2,5.4c-1.6,1.9-3.1,3.9-4.4,5.9c-1.3,2-2.6,4.1-3.7,6.1c-1.1,2-2.1,4-2.9,5.9c1.7,0.4,3.4,0.5,5.2,0.3
					c1.8-0.2,3.5-0.6,5.2-1.2c1.6-0.6,3.2-1.3,4.6-2.3c1.4-0.9,2.6-2,3.5-3.2c0.4-0.5,0.8-0.6,1.3-0.5c0.5,0.1,0.8,0.4,1.1,0.9
					c0.3,0.5,0.4,1.1,0.4,1.8c0,0.7-0.3,1.5-0.8,2.2c-1.1,1.5-2.5,2.8-4,4c-1.5,1.2-3.2,2.2-4.9,3c-1.7,0.8-3.5,1.5-5.3,1.9
					C254.6,48,252.9,48.2,251.2,48.1z M246.2,48.6c-1.6,3.6-3,7-4.2,10.2c-1.2,3.2-2.1,5.9-2.7,8.3c-0.6,2.4-1,4.2-1.2,5.5
					c-0.2,1.3-0.1,1.8,0.3,1.6c0.5-0.2,1.2-1.1,2.2-2.7c1-1.6,1.9-3.6,2.8-6c0.9-2.4,1.6-5.1,2.2-8
					C246.2,54.6,246.4,51.6,246.2,48.6z"/>
			</g>
			<g>
				<path class="st0" d="M303.6,38.8c-1.5,1.7-3.2,3.9-5.2,6.4c-1.9,2.6-3.9,5-6,7.3c-2.1,2.3-4.2,4.1-6.3,5.5
					c-2.1,1.4-4.2,1.7-6.1,1c-1.3-0.5-2.1-1.4-2.5-2.7c-0.4-1.4-0.5-3-0.2-4.8c0.3-1.8,0.9-3.8,1.9-6c0.9-2.1,2.1-4.2,3.4-6.3
					c1.3-2.1,2.9-4.1,4.6-5.9c1.7-1.8,3.5-3.3,5.3-4.6c2.2-1.5,4.2-1.9,6-1.4c1.9,0.6,3.4,2,4.7,4.3c0.4-0.5,0.8-1,1.4-1.7
					c0.5-0.7,1.1-1.5,1.7-2.2c0.6-0.8,1.1-1.5,1.7-2.2c0.6-0.7,1.1-1.3,1.5-1.6c0.7-0.7,1.5-1,2.3-1c0.8,0,1.5,0.3,2.1,0.8
					c0.6,0.5,0.9,1.2,1.1,2.1c0.2,0.9,0,1.9-0.4,2.9c-3,6.5-4.9,11.5-5.9,14.8c-0.9,3.4-1,5.3-0.2,5.8c0.8,0.5,2.5-0.3,5-2.5
					c2.5-2.2,5.8-5.6,9.8-10.1c0.5-0.5,0.9-0.8,1.4-0.7c0.4,0,0.8,0.2,1,0.6c0.2,0.4,0.3,0.9,0.3,1.5c-0.1,0.6-0.4,1.4-0.9,2.1
					c-5.1,7.1-9.3,11.8-12.6,14.2c-3.3,2.4-6.2,2.8-8.5,1.4c-1.5-0.9-2.3-2.6-2.5-5.2C301.2,48,301.9,44.1,303.6,38.8z M288.5,48.2
					c0.9-0.8,1.9-1.8,3.1-3c1.2-1.2,2.3-2.5,3.4-3.8c1.1-1.3,2.1-2.5,2.9-3.7c0.9-1.2,1.4-2,1.7-2.6c0.2-0.5,0.1-0.8-0.3-1.2
					c-0.4-0.3-1.1-0.4-2.1-0.1c-0.9,0.3-2.1,0.9-3.6,2c-1.4,1.1-3,2.8-4.8,5.2c-0.4,0.5-0.8,1.2-1.4,2.1c-0.6,0.9-1.1,1.7-1.5,2.6
					c-0.5,0.9-0.8,1.7-1.1,2.5c-0.3,0.8-0.4,1.3-0.3,1.7c0.1,0.4,0.4,0.4,1,0.2C286.2,50,287.2,49.3,288.5,48.2z"/>
			</g>
			<g>
				<path class="st2" d="M30.6,94.8v8.7h17.5v8.7H30.6v13.6H19.4V86.1h31.1v8.7H30.6z"/>
			</g>
			<g>
				<path class="st2" d="M64.1,123.9c-3.3-1.8-6-4.2-7.9-7.4c-1.9-3.1-2.9-6.7-2.9-10.6c0-3.9,1-7.5,2.9-10.6
					c1.9-3.1,4.5-5.6,7.9-7.4c3.3-1.8,7.1-2.7,11.3-2.7c4.2,0,8,0.9,11.3,2.7c3.3,1.8,6,4.2,7.9,7.4c1.9,3.1,2.9,6.7,2.9,10.6
					c0,3.9-1,7.5-2.9,10.6c-1.9,3.1-4.5,5.6-7.9,7.4c-3.3,1.8-7.1,2.7-11.3,2.7C71.2,126.5,67.4,125.7,64.1,123.9z M80.8,115.8
					c1.6-0.9,2.9-2.3,3.9-4c0.9-1.7,1.4-3.7,1.4-5.9c0-2.2-0.5-4.2-1.4-5.9c-0.9-1.7-2.2-3-3.9-4c-1.6-0.9-3.4-1.4-5.4-1.4
					c-2,0-3.8,0.5-5.4,1.4c-1.6,0.9-2.9,2.3-3.9,4c-0.9,1.7-1.4,3.7-1.4,5.9c0,2.2,0.5,4.2,1.4,5.9c0.9,1.7,2.2,3,3.9,4
					c1.6,0.9,3.4,1.4,5.4,1.4C77.4,117.3,79.2,116.8,80.8,115.8z"/>
			</g>
			<g>
				<path class="st2" d="M107.9,121.7c-3.3-3.2-4.9-7.8-4.9-13.6v-22h11.2v21.6c0,6.3,2.5,9.5,7.5,9.5c5,0,7.5-3.2,7.5-9.5V86.1h11
					v22c0,5.9-1.6,10.4-4.9,13.6c-3.3,3.2-7.8,4.8-13.7,4.8S111.1,124.9,107.9,121.7z"/>
			</g>
			<g>
				<path class="st2" d="M185.5,86.1v39.6h-9.2l-17.5-21.1v21.1h-11V86.1h9.2l17.5,21.1V86.1H185.5z"/>
			</g>
			<g>
				<path class="st2" d="M193.5,86.1h18.7c4.3,0,8.2,0.8,11.6,2.4c3.4,1.6,6,3.9,7.8,6.9c1.8,3,2.8,6.5,2.8,10.5
					c0,4-0.9,7.5-2.8,10.5c-1.9,3-4.5,5.3-7.8,6.9c-3.4,1.6-7.2,2.4-11.6,2.4h-18.7V86.1z M211.8,116.8c3.4,0,6.1-1,8.2-2.9
					c2.1-1.9,3.1-4.6,3.1-8c0-3.4-1-6.1-3.1-8c-2.1-1.9-4.8-2.9-8.2-2.9h-7.1v21.7H211.8z"/>
			</g>
			<g>
				<path class="st2" d="M272.1,117.1v8.7h-31.8V86.1h31.1v8.7h-20v6.7H269v8.4h-17.6v7.2H272.1z"/>
			</g>
			<g>
				<path class="st2" d="M295.6,115.2h-6.1v10.5h-11.2V86.1h18.1c3.6,0,6.7,0.6,9.3,1.8c2.6,1.2,4.7,2.9,6.1,5.1
					c1.4,2.2,2.2,4.8,2.2,7.8c0,2.9-0.7,5.4-2,7.5c-1.3,2.1-3.3,3.8-5.7,5l8.6,12.5h-12L295.6,115.2z M301,96.5
					c-1.2-1-2.9-1.5-5.2-1.5h-6.2v11.6h6.2c2.3,0,4-0.5,5.2-1.5c1.2-1,1.8-2.4,1.8-4.3C302.7,98.9,302.1,97.5,301,96.5z"/>
			</g>
		</g>
	</g>
	<g>
		<g>
			<path class="st0" d="M377.1,76.5h-0.6c-9.5,0-17.3-7.7-17.3-17.3V26.7c0-9.5,7.7-17.3,17.3-17.3h0.6c9.5,0,17.3,7.7,17.3,17.3
				v32.6C394.4,68.8,386.6,76.5,377.1,76.5z"/>
		</g>
		<g>
			<path class="st0" d="M376.7,133.4c-2.4,0-4.3-1.9-4.3-4.3V98.5c0-2.4,1.9-4.3,4.3-4.3s4.3,1.9,4.3,4.3v30.6
				C381,131.5,379.1,133.4,376.7,133.4z"/>
		</g>
		<g>
			<path class="st0" d="M394,133.4h-34.1c-2.4,0-4.3-1.9-4.3-4.3c0-2.4,1.9-4.3,4.3-4.3H394c2.4,0,4.3,1.9,4.3,4.3
				C398.2,131.5,396.3,133.4,394,133.4z"/>
		</g>
		<g>
			<path class="st0" d="M376.9,102.3c-19.6,0-35.9-15.5-36.8-35.2c0-0.8,0-1.5,0-2.2c0.1-2.4,2-4.2,4.4-4.1c2.4,0.1,4.2,2,4.1,4.4
				c0,0.5,0,1,0,1.6c0.7,15.6,14,27.7,29.6,27c15.4-0.7,27.3-13.3,27-28.7c0-2.4,1.8-4.3,4.2-4.3c2.3,0,4.3,1.8,4.3,4.2
				c0.3,20-15.2,36.4-35.2,37.3C378,102.3,377.5,102.3,376.9,102.3z"/>
		</g>
	</g>
</g>
</svg>
