<?xml version="1.0" encoding="utf-8"?>
<!-- Generator: Adobe Illustrator 27.7.0, SVG Export Plug-In . SVG Version: 6.00 Build 0)  -->
<svg version="1.1" id="Layer_1" xmlns="http://www.w3.org/2000/svg" xmlns:xlink="http://www.w3.org/1999/xlink" x="0px" y="0px"
	 viewBox="0 0 443 123.4" style="enable-background:new 0 0 443 123.4;" xml:space="preserve">
<style type="text/css">
	.st0{fill:#104EA6;}
	.st1{fill:#F0B142;}
	.st2{fill:#17AF12;}
</style>
<g>
	<g>
		<g>
			<g>
				<g>
					<g id="XMLID_00000127020565031732903890000006529644707970659252_">
						<path class="st0" d="M8,5.9h13.8v74.3H8V5.9z"/>
						<path class="st0" d="M31.1,20.7h13.6V28c4-5.2,10.1-8.5,17.8-8.5c15,0,23.6,9.3,23.6,25.4v35.3H72.2V46.3
							c0-9.3-4.5-15-13.4-15c-7.8,0-13.9,5.7-13.9,16.2v32.7H31.1V20.7z"/>
						<path class="st0" d="M93.8,67.5l32.9-48.3H94.9V5.9h48v12.6L110,67h32.9v13.2H93.8V67.5z"/>
						<path class="st0" d="M145.7,50.5c0-17.4,13.6-31,30.8-31c17.1,0,30.8,13.6,30.8,31c0,17.1-13.7,30.9-30.8,30.9
							C159.3,81.4,145.7,67.6,145.7,50.5z M193.8,50.5c0-10.1-7.5-18.1-17.3-18.1c-9.9,0-17.3,8-17.3,18.1c0,9.9,7.4,18,17.3,18
							C186.3,68.5,193.8,60.3,193.8,50.5z"/>
						<path class="st0" d="M213.3,20.7H227V28c4-5.2,10.1-8.5,17.8-8.5c15,0,23.6,9.3,23.6,25.4v35.3h-13.9V46.3
							c0-9.3-4.5-15-13.4-15c-7.8,0-13.9,5.7-13.9,16.2v32.7h-13.7V20.7z"/>
						<path class="st0" d="M274.4,50.6c0-17.4,13.5-31.1,30.9-31.1c17.7,0,30.6,13,30.6,30.6v5.2h-48.4c1.9,8.4,8.5,14,18.3,14
							c7.7,0,13.6-4.1,16.5-10.5l11.3,6.5c-5.2,9.7-14.3,16.1-27.8,16.1C287.1,81.4,274.4,67.8,274.4,50.6z M288.2,43.8H322
							c-2-8-8.1-12.2-16.7-12.2C297.1,31.5,290.7,36.4,288.2,43.8z"/>
					</g>
				</g>
			</g>
			<g>
				<path class="st0" d="M28.1,103.1c0.9,1.1,1.3,2.4,1.3,4.1c0,2.1-0.8,3.8-2.4,4.9c-1.6,1.2-3.9,1.7-7,1.7H8.6v-25h10.8
					c2.8,0,4.9,0.6,6.5,1.7c1.5,1.1,2.3,2.7,2.3,4.7c0,1.4-0.3,2.6-1,3.5c-0.7,1-1.6,1.7-2.8,2.2C25.9,101.3,27.2,102,28.1,103.1z
					 M11.2,91v9.1h8c2,0,3.6-0.4,4.7-1.2c1.1-0.8,1.6-1.9,1.6-3.4c0-1.5-0.5-2.6-1.6-3.4c-1.1-0.8-2.7-1.2-4.7-1.2H11.2z
					 M25.1,110.5c1.1-0.8,1.7-1.9,1.7-3.6c0-3.1-2.3-4.7-6.8-4.7h-8.8v9.4H20C22.2,111.6,23.9,111.3,25.1,110.5z"/>
				<path class="st0" d="M51.3,105.2H35.6c0.1,1.9,0.9,3.5,2.2,4.7c1.4,1.2,3.1,1.8,5.1,1.8c1.2,0,2.2-0.2,3.2-0.6
					c1-0.4,1.8-1,2.5-1.8l1.4,1.6c-0.8,1-1.9,1.8-3.1,2.3c-1.2,0.5-2.6,0.8-4.1,0.8c-1.9,0-3.6-0.4-5.1-1.2c-1.5-0.8-2.6-2-3.5-3.4
					c-0.8-1.5-1.2-3.1-1.2-4.9s0.4-3.5,1.2-4.9c0.8-1.5,1.9-2.6,3.3-3.4c1.4-0.8,3-1.2,4.7-1.2c1.7,0,3.3,0.4,4.7,1.2
					c1.4,0.8,2.5,1.9,3.2,3.4c0.8,1.4,1.2,3.1,1.2,4.9L51.3,105.2z M37.6,98.8c-1.2,1.2-1.9,2.7-2.1,4.5h13.3
					c-0.2-1.9-0.9-3.4-2.1-4.5c-1.2-1.2-2.8-1.7-4.6-1.7C40.4,97.1,38.9,97.7,37.6,98.8z"/>
				<path class="st0" d="M78,96.7c1.3,1.2,2,3,2,5.4v11.6h-2.4v-2.9c-0.6,1-1.4,1.7-2.5,2.3c-1.1,0.5-2.4,0.8-3.9,0.8
					c-2.1,0-3.8-0.5-5-1.5c-1.2-1-1.9-2.3-1.9-4c0-1.6,0.6-2.9,1.7-3.9c1.2-1,3-1.5,5.5-1.5h6v-1.1c0-1.6-0.5-2.8-1.4-3.7
					c-0.9-0.8-2.2-1.3-4-1.3c-1.2,0-2.3,0.2-3.4,0.6c-1.1,0.4-2,0.9-2.8,1.6l-1.1-1.9c1-0.8,2.1-1.4,3.4-1.9
					c1.3-0.4,2.7-0.7,4.2-0.7C74.8,94.9,76.7,95.5,78,96.7z M75.2,111c1-0.7,1.8-1.6,2.3-2.8v-3.1h-5.9c-3.2,0-4.8,1.1-4.8,3.4
					c0,1.1,0.4,2,1.2,2.6c0.8,0.6,2,0.9,3.5,0.9C72.9,112,74.1,111.7,75.2,111z"/>
				<path class="st0" d="M98.3,113.1c-1.7-0.6-3-1.4-3.9-2.4l1-2c0.9,0.9,2.1,1.6,3.6,2.2c1.5,0.6,3,0.8,4.6,0.8
					c2.2,0,3.9-0.4,5-1.2c1.1-0.8,1.7-1.9,1.7-3.2c0-1-0.3-1.8-0.9-2.4c-0.6-0.6-1.3-1.1-2.2-1.4s-2.1-0.7-3.7-1.1
					c-1.9-0.5-3.4-0.9-4.5-1.4c-1.1-0.4-2.1-1.1-2.9-2C95.4,98.2,95,97,95,95.5c0-1.3,0.3-2.4,1-3.4c0.7-1,1.7-1.9,3.1-2.5
					c1.4-0.6,3.1-0.9,5.1-0.9c1.4,0,2.8,0.2,4.2,0.6c1.4,0.4,2.6,0.9,3.5,1.6l-0.9,2.1c-1-0.7-2.2-1.2-3.4-1.6
					c-1.2-0.3-2.4-0.5-3.5-0.5c-2.2,0-3.8,0.4-4.9,1.3c-1.1,0.8-1.7,1.9-1.7,3.3c0,1,0.3,1.8,0.9,2.4c0.6,0.6,1.4,1.1,2.3,1.4
					c0.9,0.3,2.1,0.7,3.7,1.1c1.8,0.5,3.3,0.9,4.4,1.3c1.1,0.4,2.1,1.1,2.9,2s1.2,2.1,1.2,3.6c0,1.3-0.3,2.4-1,3.4
					c-0.7,1-1.7,1.9-3.1,2.5c-1.4,0.6-3.1,0.9-5.2,0.9C101.8,114,100,113.7,98.3,113.1z"/>
				<path class="st0" d="M135.1,95v18.8h-2.4v-3.4c-0.7,1.1-1.6,2-2.7,2.7c-1.2,0.6-2.5,0.9-4,0.9c-2.4,0-4.4-0.7-5.8-2.1
					c-1.4-1.4-2.1-3.4-2.1-6V95h2.5v10.6c0,2,0.5,3.5,1.5,4.5c1,1,2.4,1.5,4.2,1.5c2,0,3.5-0.6,4.7-1.8c1.1-1.2,1.7-2.9,1.7-5V95
					H135.1z"/>
				<path class="st0" d="M145,112.8c-1.5-0.8-2.6-1.9-3.4-3.4c-0.8-1.5-1.2-3.1-1.2-4.9s0.4-3.5,1.2-4.9c0.8-1.5,2-2.6,3.4-3.4
					c1.5-0.8,3.1-1.2,5-1.2c1.6,0,3.1,0.3,4.3,0.9c1.3,0.6,2.3,1.6,3,2.8l-1.9,1.3c-0.6-0.9-1.4-1.6-2.4-2.1c-1-0.5-2-0.7-3.1-0.7
					c-1.4,0-2.6,0.3-3.7,0.9c-1.1,0.6-1.9,1.5-2.5,2.6c-0.6,1.1-0.9,2.4-0.9,3.8c0,1.5,0.3,2.7,0.9,3.8c0.6,1.1,1.5,2,2.5,2.6
					c1.1,0.6,2.3,0.9,3.7,0.9c1.1,0,2.2-0.2,3.1-0.7c1-0.5,1.7-1.1,2.4-2.1l1.9,1.3c-0.7,1.2-1.7,2.1-3,2.8
					c-1.3,0.6-2.7,0.9-4.3,0.9C148.1,114,146.4,113.6,145,112.8z"/>
				<path class="st0" d="M164.7,112.8c-1.5-0.8-2.6-1.9-3.4-3.4c-0.8-1.5-1.2-3.1-1.2-4.9s0.4-3.5,1.2-4.9c0.8-1.5,2-2.6,3.4-3.4
					c1.5-0.8,3.1-1.2,5-1.2c1.6,0,3.1,0.3,4.3,0.9c1.3,0.6,2.3,1.6,3,2.8l-1.9,1.3c-0.6-0.9-1.4-1.6-2.4-2.1c-1-0.5-2-0.7-3.1-0.7
					c-1.4,0-2.6,0.3-3.7,0.9c-1.1,0.6-1.9,1.5-2.5,2.6c-0.6,1.1-0.9,2.4-0.9,3.8c0,1.5,0.3,2.7,0.9,3.8c0.6,1.1,1.5,2,2.5,2.6
					c1.1,0.6,2.3,0.9,3.7,0.9c1.1,0,2.2-0.2,3.1-0.7c1-0.5,1.7-1.1,2.4-2.1l1.9,1.3c-0.7,1.2-1.7,2.1-3,2.8
					c-1.3,0.6-2.7,0.9-4.3,0.9C167.8,114,166.2,113.6,164.7,112.8z"/>
				<path class="st0" d="M198,105.2h-15.7c0.1,1.9,0.9,3.5,2.2,4.7c1.4,1.2,3.1,1.8,5.1,1.8c1.2,0,2.2-0.2,3.2-0.6
					c1-0.4,1.8-1,2.5-1.8l1.4,1.6c-0.8,1-1.9,1.8-3.1,2.3c-1.2,0.5-2.6,0.8-4.1,0.8c-1.9,0-3.6-0.4-5.1-1.2c-1.5-0.8-2.6-2-3.5-3.4
					c-0.8-1.5-1.2-3.1-1.2-4.9s0.4-3.5,1.2-4.9c0.8-1.5,1.9-2.6,3.3-3.4c1.4-0.8,3-1.2,4.7-1.2c1.7,0,3.3,0.4,4.7,1.2
					c1.4,0.8,2.5,1.9,3.2,3.4c0.8,1.4,1.2,3.1,1.2,4.9L198,105.2z M184.4,98.8c-1.2,1.2-1.9,2.7-2.1,4.5h13.3
					c-0.2-1.9-0.9-3.4-2.1-4.5c-1.2-1.2-2.8-1.7-4.6-1.7C187.1,97.1,185.6,97.7,184.4,98.8z"/>
				<path class="st0" d="M203.9,113.3c-1.4-0.4-2.5-1-3.3-1.7l1.1-2c0.8,0.6,1.8,1.1,3,1.5c1.2,0.4,2.4,0.6,3.7,0.6
					c1.7,0,3-0.3,3.8-0.8c0.8-0.5,1.2-1.3,1.2-2.3c0-0.7-0.2-1.2-0.7-1.6c-0.5-0.4-1-0.7-1.7-0.9c-0.7-0.2-1.6-0.4-2.7-0.6
					c-1.5-0.3-2.7-0.6-3.7-0.9c-0.9-0.3-1.7-0.8-2.4-1.5c-0.7-0.7-1-1.7-1-3c0-1.6,0.7-2.9,2-3.9c1.3-1,3.1-1.5,5.5-1.5
					c1.2,0,2.4,0.2,3.6,0.5c1.2,0.3,2.2,0.7,3,1.3l-1.1,2c-1.5-1.1-3.4-1.6-5.5-1.6c-1.6,0-2.8,0.3-3.7,0.9
					c-0.8,0.6-1.2,1.3-1.2,2.2c0,0.7,0.2,1.3,0.7,1.7c0.5,0.4,1,0.7,1.7,0.9c0.7,0.2,1.6,0.4,2.9,0.6c1.5,0.3,2.7,0.6,3.6,0.9
					c0.9,0.3,1.7,0.8,2.3,1.5c0.6,0.7,1,1.6,1,2.9c0,1.6-0.7,2.9-2.1,3.9c-1.4,1-3.3,1.4-5.7,1.4C206.7,114,205.3,113.8,203.9,113.3
					z"/>
				<path class="st0" d="M221.3,113.3c-1.4-0.4-2.5-1-3.3-1.7l1.1-2c0.8,0.6,1.8,1.1,3,1.5c1.2,0.4,2.4,0.6,3.7,0.6
					c1.7,0,3-0.3,3.8-0.8c0.8-0.5,1.2-1.3,1.2-2.3c0-0.7-0.2-1.2-0.7-1.6s-1-0.7-1.7-0.9c-0.7-0.2-1.6-0.4-2.7-0.6
					c-1.5-0.3-2.7-0.6-3.7-0.9c-0.9-0.3-1.7-0.8-2.4-1.5c-0.7-0.7-1-1.7-1-3c0-1.6,0.7-2.9,2-3.9c1.3-1,3.1-1.5,5.5-1.5
					c1.2,0,2.4,0.2,3.6,0.5c1.2,0.3,2.2,0.7,3,1.3l-1.1,2c-1.5-1.1-3.4-1.6-5.5-1.6c-1.6,0-2.8,0.3-3.7,0.9
					c-0.8,0.6-1.2,1.3-1.2,2.2c0,0.7,0.2,1.3,0.7,1.7c0.5,0.4,1,0.7,1.7,0.9c0.7,0.2,1.6,0.4,2.9,0.6c1.5,0.3,2.7,0.6,3.6,0.9
					c0.9,0.3,1.7,0.8,2.3,1.5c0.6,0.7,1,1.6,1,2.9c0,1.6-0.7,2.9-2.1,3.9c-1.4,1-3.3,1.4-5.7,1.4C224.2,114,222.7,113.8,221.3,113.3
					z"/>
				<path class="st0" d="M249.5,113.1c-1.7-0.6-3-1.4-3.9-2.4l1-2c0.9,0.9,2.1,1.6,3.6,2.2c1.5,0.6,3,0.8,4.6,0.8
					c2.2,0,3.9-0.4,5-1.2c1.1-0.8,1.7-1.9,1.7-3.2c0-1-0.3-1.8-0.9-2.4c-0.6-0.6-1.3-1.1-2.2-1.4c-0.9-0.3-2.1-0.7-3.7-1.1
					c-1.9-0.5-3.4-0.9-4.5-1.4c-1.1-0.4-2.1-1.1-2.9-2c-0.8-0.9-1.2-2.1-1.2-3.7c0-1.3,0.3-2.4,1-3.4c0.7-1,1.7-1.9,3.1-2.5
					c1.4-0.6,3.1-0.9,5.1-0.9c1.4,0,2.8,0.2,4.2,0.6c1.4,0.4,2.6,0.9,3.5,1.6l-0.9,2.1c-1-0.7-2.2-1.2-3.4-1.6
					c-1.2-0.3-2.4-0.5-3.5-0.5c-2.2,0-3.8,0.4-4.9,1.3c-1.1,0.8-1.7,1.9-1.7,3.3c0,1,0.3,1.8,0.9,2.4c0.6,0.6,1.4,1.1,2.3,1.4
					c0.9,0.3,2.1,0.7,3.7,1.1c1.8,0.5,3.3,0.9,4.4,1.3c1.1,0.4,2.1,1.1,2.9,2c0.8,0.9,1.2,2.1,1.2,3.6c0,1.3-0.3,2.4-1,3.4
					c-0.7,1-1.7,1.9-3.1,2.5c-1.4,0.6-3.1,0.9-5.2,0.9C253,114,251.2,113.7,249.5,113.1z"/>
				<path class="st0" d="M279.3,112.7c-0.5,0.4-1.1,0.8-1.8,1c-0.7,0.2-1.4,0.3-2.2,0.3c-1.8,0-3.1-0.5-4.1-1.4c-1-1-1.4-2.3-1.4-4
					V97.2h-3.4V95h3.4v-4.1h2.5V95h5.7v2.1h-5.7v11.2c0,1.1,0.3,2,0.8,2.6c0.6,0.6,1.4,0.9,2.4,0.9c0.5,0,1-0.1,1.5-0.2
					c0.5-0.2,0.9-0.4,1.3-0.7L279.3,112.7z"/>
				<path class="st0" d="M286,112.8c-1.5-0.8-2.6-2-3.4-3.4c-0.8-1.5-1.2-3.1-1.2-4.9s0.4-3.5,1.2-4.9c0.8-1.5,2-2.6,3.4-3.4
					c1.5-0.8,3.1-1.2,4.9-1.2c1.8,0,3.4,0.4,4.9,1.2c1.5,0.8,2.6,1.9,3.4,3.4c0.8,1.5,1.2,3.1,1.2,4.9s-0.4,3.5-1.2,4.9
					c-0.8,1.5-2,2.6-3.4,3.4c-1.5,0.8-3.1,1.2-4.9,1.2C289.1,114,287.4,113.6,286,112.8z M294.5,110.8c1.1-0.6,1.9-1.5,2.5-2.6
					c0.6-1.1,0.9-2.4,0.9-3.8c0-1.4-0.3-2.7-0.9-3.8c-0.6-1.1-1.4-2-2.5-2.6c-1.1-0.6-2.3-0.9-3.6-0.9c-1.3,0-2.5,0.3-3.6,0.9
					c-1.1,0.6-1.9,1.5-2.5,2.6c-0.6,1.1-0.9,2.4-0.9,3.8c0,1.4,0.3,2.7,0.9,3.8c0.6,1.1,1.4,2,2.5,2.6c1.1,0.6,2.3,0.9,3.6,0.9
					C292.2,111.7,293.4,111.4,294.5,110.8z"/>
				<path class="st0" d="M310.6,95.9c1.2-0.6,2.6-1,4.4-1v2.5l-0.6,0c-2,0-3.5,0.6-4.6,1.8c-1.1,1.2-1.7,2.9-1.7,5.1v9.6h-2.5V95
					h2.4v3.7C308.6,97.5,309.5,96.5,310.6,95.9z"/>
				<path class="st0" d="M336.2,95l-9.4,21c-0.8,1.8-1.6,3-2.6,3.7c-1,0.7-2.2,1.1-3.6,1.1c-0.9,0-1.7-0.1-2.5-0.4
					c-0.8-0.3-1.5-0.7-2-1.3l1.2-1.9c1,1,2.1,1.4,3.4,1.4c0.9,0,1.6-0.2,2.2-0.7c0.6-0.5,1.2-1.3,1.7-2.4l0.8-1.8L316.9,95h2.6
					l7.1,15.9l7.1-15.9H336.2z"/>
			</g>
		</g>
	</g>
	<g>
		<g>
			<path class="st1" d="M351.8,31.8h20.1c0.3,0,0.6,0.1,0.8,0.3l34.7,34.8l-34.5,35.3c-0.2,0.2-0.5,0.3-0.8,0.3h-20.9L387,67.1
				L351.8,31.8z"/>
		</g>
	</g>
	<g>
		<g>
			<path class="st2" d="M379.9,31.8h20.1c0.3,0,0.6,0.1,0.8,0.3l34.7,34.8L401,102.2c-0.2,0.2-0.5,0.3-0.8,0.3h-20.9l35.8-35.4
				L379.9,31.8z"/>
		</g>
	</g>
</g>
</svg>
